<?xml version="1.0" encoding="utf-8"?>
<!-- Generator: Adobe Illustrator 19.0.0, SVG Export Plug-In . SVG Version: 6.00 Build 0)  -->
<svg version="1.1" id="Layer_1" xmlns="http://www.w3.org/2000/svg" xmlns:xlink="http://www.w3.org/1999/xlink" x="0px" y="0px"
	 viewBox="0 0 792 612" style="enable-background:new 0 0 792 612;" xml:space="preserve">
<style type="text/css">
	.st0{fill:#FFFFFF;}
	.st1{fill:#D24948;}
	.st2{fill:none;stroke:#D24948;stroke-width:0.5;stroke-miterlimit:10;}
	.st3{fill:#3D3D6C;}
</style>
<rect id="XMLID_64_" class="st0" width="792" height="612"/>
<g id="XMLID_1_">
	<g id="XMLID_24_">
		<path id="XMLID_25_" class="st1" d="M389.3,345.7c0.9,0.4,2.4,0.8,3.8,0.8c2.1,0,3.1-0.7,3.1-1.6c0-0.9-0.8-1.5-2.9-2
			c-2.8-0.7-4.2-1.8-4.2-3.1c0-1.8,2.1-3.2,5.5-3.2c1.6,0,3,0.3,3.9,0.7l-0.7,1.4c-0.6-0.3-1.8-0.6-3.2-0.6c-1.7,0-2.6,0.7-2.6,1.5
			c0,0.9,0.9,1.3,3,1.9c2.7,0.7,4.2,1.7,4.2,3.3c0,1.9-2.2,3.3-5.9,3.3c-1.7,0-3.3-0.3-4.4-0.7L389.3,345.7z"/>
		<path id="XMLID_27_" class="st1" d="M417,342.2c0,4-4.1,5.8-7.9,5.8c-4.3,0-7.6-2.2-7.6-5.6c0-3.7,3.5-5.8,7.8-5.8
			C413.9,336.6,417,338.8,417,342.2z M404.4,342.3c0,2.4,2,4.2,4.8,4.2c2.7,0,4.8-1.8,4.8-4.2c0-1.9-1.3-4.2-4.7-4.2
			C405.9,338.1,404.4,340.2,404.4,342.3z"/>
		<path id="XMLID_30_" class="st1" d="M420.6,331.7h2.9v16h-2.9V331.7z"/>
		<path id="XMLID_32_" class="st1" d="M441.5,344.8c0,1.1,0,2.1,0.1,3h-2.5L439,346h-0.1c-0.8,0.9-2.4,2-5.2,2
			c-2.5,0-5.5-0.9-5.5-4.8v-6.4h2.9v6c0,2.1,0.9,3.5,3.5,3.5c1.9,0,3.3-0.9,3.8-1.8c0.2-0.3,0.3-0.7,0.3-1v-6.7h2.9V344.8z"/>
		<path id="XMLID_34_" class="st1" d="M449.8,333.7v3.1h4.1v1.5h-4.1v5.9c0,1.4,0.6,2.1,2.2,2.1c0.8,0,1.3-0.1,1.7-0.1l0.1,1.5
			c-0.6,0.2-1.4,0.3-2.5,0.3c-1.3,0-2.4-0.3-3.1-0.8c-0.8-0.6-1.1-1.6-1.1-2.8v-6h-2.5v-1.5h2.5v-2.6L449.8,333.7z"/>
		<path id="XMLID_36_" class="st1" d="M460.3,333.7c0,0.7-0.7,1.2-1.8,1.2c-1,0-1.7-0.5-1.7-1.2c0-0.7,0.8-1.2,1.8-1.2
			C459.6,332.5,460.3,333,460.3,333.7z M457.1,347.7v-10.9h2.9v10.9H457.1z"/>
		<path id="XMLID_39_" class="st1" d="M479.1,342.2c0,4-4.1,5.8-7.9,5.8c-4.3,0-7.6-2.2-7.6-5.6c0-3.7,3.5-5.8,7.8-5.8
			C476,336.6,479.1,338.8,479.1,342.2z M466.5,342.3c0,2.4,2,4.2,4.8,4.2c2.7,0,4.8-1.8,4.8-4.2c0-1.9-1.3-4.2-4.7-4.2
			S466.5,340.2,466.5,342.3z"/>
		<path id="XMLID_42_" class="st1" d="M482.7,339.8c0-1.1,0-2.1-0.1-3h2.5l0.2,1.8h0.1c0.8-1,2.6-2.1,5.2-2.1c2.2,0,5.6,0.9,5.6,4.6
			v6.5h-2.9v-6.3c0-1.8-0.9-3.2-3.7-3.2c-1.9,0-3.4,0.9-3.9,2c-0.1,0.2-0.2,0.6-0.2,0.9v6.6h-2.9V339.8z"/>
		<path id="XMLID_44_" class="st1" d="M507.8,331.7h2.9v16h-2.9V331.7z"/>
		<path id="XMLID_46_" class="st1" d="M518.7,333.7c0,0.7-0.7,1.2-1.8,1.2c-1,0-1.7-0.5-1.7-1.2c0-0.7,0.8-1.2,1.8-1.2
			C518,332.5,518.7,333,518.7,333.7z M515.5,347.7v-10.9h2.9v10.9H515.5z"/>
		<path id="XMLID_49_" class="st1" d="M523.2,339.8c0-1.1,0-2.1-0.1-3h2.5l0.1,1.8h0.1c0.9-1,2.4-2,5-2c2.2,0,3.8,0.9,4.5,2.2h0.1
			c0.5-0.6,1.1-1.1,1.8-1.4c0.9-0.5,2-0.8,3.5-0.8c2.1,0,5.2,0.9,5.2,4.7v6.4h-2.8v-6.2c0-2.1-1.1-3.4-3.4-3.4
			c-1.6,0-2.9,0.8-3.4,1.8c-0.1,0.3-0.2,0.6-0.2,1v6.7h-2.8v-6.5c0-1.7-1.1-3-3.3-3c-1.8,0-3.1,1-3.6,2c-0.2,0.3-0.2,0.6-0.2,1v6.6
			h-2.8V339.8z"/>
		<path id="XMLID_51_" class="st1" d="M553.6,333.7c0,0.7-0.7,1.2-1.8,1.2c-1,0-1.7-0.5-1.7-1.2c0-0.7,0.8-1.2,1.8-1.2
			C552.9,332.5,553.6,333,553.6,333.7z M550.4,347.7v-10.9h2.9v10.9H550.4z"/>
		<path id="XMLID_54_" class="st1" d="M561.5,333.7v3.1h4.1v1.5h-4.1v5.9c0,1.4,0.6,2.1,2.2,2.1c0.8,0,1.3-0.1,1.7-0.1l0.1,1.5
			c-0.6,0.2-1.4,0.3-2.5,0.3c-1.3,0-2.4-0.3-3.1-0.8c-0.8-0.6-1.1-1.6-1.1-2.8v-6h-2.5v-1.5h2.5v-2.6L561.5,333.7z"/>
		<path id="XMLID_56_" class="st1" d="M570.3,342.6c0.1,2.7,2.5,3.8,5.4,3.8c2.1,0,3.3-0.2,4.4-0.6l0.5,1.4c-1,0.3-2.7,0.7-5.3,0.7
			c-4.9,0-7.8-2.2-7.8-5.5s2.8-5.9,7.4-5.9c5.2,0,6.5,3.1,6.5,5.1c0,0.4-0.1,0.7-0.1,0.9H570.3z M578.7,341.2c0-1.3-0.8-3.2-4-3.2
			c-2.9,0-4.2,1.9-4.4,3.2H578.7z"/>
		<path id="XMLID_59_" class="st1" d="M598.7,331.7v13.2c0,1,0,2.1,0.1,2.8h-2.6l-0.1-1.9h-0.1c-0.9,1.2-2.8,2.1-5.4,2.1
			c-3.8,0-6.8-2.2-6.8-5.6c0-3.6,3.2-5.9,7.1-5.9c2.4,0,4.1,0.8,4.8,1.7h0.1v-6.5H598.7z M595.8,341.3c0-0.2,0-0.6-0.1-0.8
			c-0.4-1.3-2-2.3-4.2-2.3c-3,0-4.7,1.8-4.7,4.2c0,2.2,1.6,4,4.7,4c1.9,0,3.7-0.9,4.2-2.4c0.1-0.3,0.1-0.5,0.1-0.9V341.3z"/>
	</g>
	<g id="XMLID_2_">
		<path id="XMLID_22_" class="st1" d="M293.3,323.8c-0.8,3.6-1.4,6.5-2.1,9.9c2.7,0.5,5.2,0.4,6.9,1.6c2,1.4,4.3,3.8,4.6,6
			c0.3,1.8-1.7,4.4-3.2,6.1c-1.8,2-6,3.5-5.9,5.1c0.2,5.1,1.5,10.3,3.2,15.1c1.3,3.6,3.8,6.8,5.8,10.2c-4.3,1.1-8.8,3.7-12.8,3
			c-7.6-1.3-15.5-3.5-22.1-7.3c-4-2.3-6.7-8.1-8.4-12.8c-5.1-14.2-9.6-28.8-14.1-43.2c-3.5-10.9-7.3-21.8-10-32.9
			c-3.1-13-1-24.7,11.3-32.9c4.2-2.8,7.6-7,11.4-10.5c0.7,0.2,1.3,0.4,2,0.7c0,4,0.3,8-0.1,12c-1,12.4,2.9,23.7,7.3,34.9
			c2.5,6.3,5.5,12.4,8.2,18.7C278.8,315.4,284.1,321.4,293.3,323.8z"/>
		<path id="XMLID_21_" class="st1" d="M236.1,363c3.4-1,6.2-2.9,8.1-2.2c3,1,5.4,3.7,8,5.7c-1.6,2.1-3,5.7-4.8,5.9
			c-16.8,2.3-33.6,4.4-50.5,5.5c-2.8,0.2-7.5-3.7-8.6-6.7c-5.3-14-7.2-28.4-2.4-43.1c2.8-8.6,13.6-16.5,23.2-16.6
			c6.7-0.1,15.7,7.5,17.9,15.8c2.5,9.5,4.3,19.2,6.5,28.8C234.1,358.3,235.1,360.4,236.1,363z"/>
		<path id="XMLID_20_" class="st1" d="M336.3,313.2c0.3,5.6,0.9,10.5,0.8,15.5c0,5.5,1.8,9.4,6.5,12.7c2.4,1.7,3.3,5.4,4.8,8.2
			c-2.8,1.2-5.5,3.2-8.4,3.4c-17.9,1.2-31-6-37.8-23.4c6.5,2.1,12,1.6,17.2-4.4C323.6,320.4,330,317.5,336.3,313.2z"/>
		<path id="XMLID_19_" class="st1" d="M295.9,263.8c-1.7,2.5-2.4,4.7-3.8,5.6c-3.1,2-6.4,3.5-9.9,4.7c-1.2,0.4-3.9-0.2-4.1-0.9
			c-0.7-2.6-1.7-5.9-0.6-7.9c2.5-4.8,6.5-8.9,12.5-7.6C292.2,258.2,293.8,261.5,295.9,263.8z"/>
		<path id="XMLID_18_" class="st2" d="M206.5,266l27.2-12.5l15.9-5.8l10.6-8.3l8.1-6c0,0,9.2-4.6,12.9-4.6c0,0,0.7-0.9,5.8,0
			l10.6,1.8l11.3,6l9.9,9.2l4.6,5.3l10.8,14.8v1.2l-1.4,3l4.8,8.8c0,0,8.8,27.3-1.4,31.1c1.8,3.5-5.8,11.5-10.2,18l-19.9,3.6
			c0,0-7.1-4.7-7.3-6.4c0,0-5.5-2.6-6.9-1.6l-38-19.5l6.2,56.4l-9,3.1l-62.6,10.4h-6.3c0,0-7.4-3.6-13.1-16.7c0,0-3-22.6-1.2-33.4
			c0,0,9.7-30.4,18.7-39.9C186.7,284,194.5,274.3,206.5,266z"/>
		<path id="XMLID_17_" class="st2" d="M271.7,299.4c0,0,2.3-12.3,0-17.9"/>
		<path id="XMLID_14_" class="st1" d="M300.3,299.4c-2.3,11.3-7,6.4-7,6.4c-9.2-6.7,4.3-14.2,4.3-14.2
			C303.3,293.5,300.3,299.4,300.3,299.4z M299.5,299.4c1.7-1,0-4.8,0-4.8c-6.9-3-4,4.8-4,4.8C297.7,301.8,299.5,299.4,299.5,299.4z"
			/>
		<path id="XMLID_13_" class="st1" d="M297.9,296.6c0,0-0.7,1.8,0,1.2c0,0,0.8,0.3,1-0.5C299,297.3,298.7,295.8,297.9,296.6z"/>
		<path id="XMLID_10_" class="st1" d="M314.8,294.8c0,0,2.1-6.1,4.3-5.4c0,0,8.8,2.3,8,5.4c0,0,0.3,10.4-4.2,9.8
			c0,0-1.7,0.5-4.3-3.3L314.8,294.8z M320.3,298.6c2.4,0.7,2-5.4,2-5.4c-6.3-3-5.2,3.2-5.2,3.2C316.4,299.8,320.3,298.6,320.3,298.6
			z"/>
		<path id="XMLID_9_" class="st1" d="M319.1,295.5c0,0,0.3,1.7,1.2,0C320.3,295.5,319.8,294,319.1,295.5z"/>
		<path id="XMLID_8_" class="st1" d="M304.3,325.4c0,0,5.4-0.9,10.2,0C314.5,325.4,307.5,327.3,304.3,325.4z"/>
		<path id="XMLID_7_" class="st1" d="M306.1,325.6c0,0,3.9,4.1,6.2,0"/>
		<path id="XMLID_6_" class="st1" d="M302,317c0,0,0.9,2.3,1.2,2c0,0,1.9,1.8,2.4,0.9c0,0,2.6,1.7,2.9,1.3c0,0,1.8,1.2,1.5,1.7
			c0,0,1.1-1.9,1.5-1.7c0,0,1.2-1.5,2.3-1.3c0,0,1.5-0.4,1.7-1.1c0,0,1.3-1.2,1.3-1.9c0,0-6.1,2.1-6.5,1.6c0,0-5.6-0.4-5.6-1
			L302,317z"/>
		<path id="XMLID_3_" class="st1" d="M327,274.2c0,0-2.7-5.8,1.2-6.2c0,0,3.1,1.3,2.9,2.9c0,0,2.2-0.2,2.5-0.7
			c0,0,5.7-10.5-0.3-14.8c0,0-8.2-3.2-12.6,3c0,0-2.2,6.3,2.6,12.4C323.3,271,326,274.5,327,274.2z"/>
	</g>
	<g id="XMLID_4_">
		<path id="XMLID_5_" class="st3" d="M388.6,275.1c3.8-0.5,8.7-1,15-1c7.7,0,13.4,1.5,17,4.2c3.3,2.4,5.3,6.1,5.3,10.6
			c0,4.6-1.6,8.2-4.7,10.8c-4.1,3.7-10.9,5.5-18.5,5.5c-2.3,0-4.5-0.1-6.3-0.4V325h-7.8V275.1z M396.4,299.4
			c1.7,0.4,3.9,0.5,6.5,0.5c9.4,0,15.2-3.8,15.2-10.8c0-6.7-5.7-9.9-14.3-9.9c-3.4,0-6,0.2-7.4,0.5V299.4z"/>
		<path id="XMLID_80_" class="st3" d="M457.9,325l-0.6-4.6H457c-2.4,2.8-7.1,5.4-13.3,5.4c-8.8,0-13.3-5.2-13.3-10.4
			c0-8.8,9.3-13.5,26.1-13.5v-0.7c0-3-1-8.4-9.9-8.4c-4,0-8.3,1-11.3,2.7l-1.8-4.3c3.6-1.9,8.8-3.2,14.3-3.2
			c13.3,0,16.5,7.6,16.5,14.8v13.5c0,3.1,0.2,6.2,0.7,8.7H457.9z M456.7,306.5c-8.6-0.1-18.4,1.1-18.4,8.2c0,4.3,3.4,6.3,7.5,6.3
			c5.7,0,9.3-3,10.5-6.1c0.3-0.7,0.4-1.4,0.4-2.1V306.5z"/>
		<path id="XMLID_83_" class="st3" d="M477.1,298.5c0-3.7-0.1-6.8-0.4-9.8h7l0.4,6h0.2c2.2-3.4,7.2-6.8,14.4-6.8
			c6,0,15.4,3,15.4,15.4V325h-7.9v-20.9c0-5.8-2.6-10.7-10.1-10.7c-5.2,0-9.3,3.1-10.6,6.7c-0.4,0.8-0.5,1.9-0.5,3.1V325h-7.9V298.5
			z"/>
		<path id="XMLID_85_" class="st3" d="M564.5,271.8v43.8c0,3.2,0.1,6.9,0.4,9.4h-7.1l-0.4-6.3h-0.2c-2.4,4-7.7,7.1-14.8,7.1
			c-10.5,0-18.6-7.4-18.6-18.4c-0.1-12,8.9-19.5,19.5-19.5c6.6,0,11.1,2.6,13.1,5.5h0.2v-21.6H564.5z M556.6,303.5
			c0-0.8-0.1-1.9-0.4-2.8c-1.2-4.2-5.5-7.6-11.4-7.6c-8.2,0-13,6-13,14c0,7.3,4.3,13.4,12.8,13.4c5.3,0,10.2-2.9,11.6-7.9
			c0.3-0.9,0.4-1.8,0.4-2.8V303.5z"/>
		<path id="XMLID_88_" class="st3" d="M601.7,325l-0.6-4.6h-0.3c-2.4,2.8-7.1,5.4-13.3,5.4c-8.8,0-13.3-5.2-13.3-10.4
			c0-8.8,9.3-13.5,26.1-13.5v-0.7c0-3-1-8.4-9.9-8.4c-4,0-8.3,1-11.3,2.7l-1.8-4.3c3.6-1.9,8.8-3.2,14.3-3.2
			c13.3,0,16.5,7.6,16.5,14.8v13.5c0,3.1,0.2,6.2,0.7,8.7H601.7z M600.5,306.5c-8.6-0.1-18.4,1.1-18.4,8.2c0,4.3,3.4,6.3,7.5,6.3
			c5.7,0,9.3-3,10.5-6.1c0.3-0.7,0.4-1.4,0.4-2.1V306.5z"/>
		<path id="XMLID_91_" class="st3" d="M619.8,318.2c2.3,1.3,6.5,2.6,10.4,2.6c5.7,0,8.4-2.4,8.4-5.4c0-3.1-2.2-4.9-8.1-6.7
			c-7.8-2.3-11.5-5.9-11.5-10.3c0-5.8,5.7-10.6,15-10.6c4.4,0,8.3,1,10.7,2.2l-2,4.8c-1.7-0.9-4.9-2.1-8.9-2.1
			c-4.7,0-7.3,2.2-7.3,4.9c0,3,2.6,4.3,8.3,6.1c7.5,2.4,11.4,5.5,11.4,10.9c0,6.4-5.9,10.9-16.3,10.9c-4.8,0-9.2-1-12.2-2.5
			L619.8,318.2z"/>
	</g>
	<rect id="XMLID_63_" x="362.4" y="224.3" class="st3" width="3.2" height="163.2"/>
</g>
</svg>
